<svg width="750" height="694" viewBox="0 0 750 694" fill="none" xmlns="http://www.w3.org/2000/svg">
<path d="M0 623.584V4.89086C0 2.12944 2.23857 0 5 0H745C747.761 0 750 2.23857 750 4.99999V616.191C750 620.745 744.248 622.793 741.117 619.486C554.771 422.698 467.926 508.574 349 627.5C229.362 747.138 68.1353 677.7 1.9026 627.458C0.670328 626.523 0 625.131 0 623.584Z" fill="url(#paint0_linear_317_47)"/>
<mask id="mask0_317_47" style="mask-type:alpha" maskUnits="userSpaceOnUse" x="0" y="0" width="750" height="694">
<path d="M0 623.584V4.89086C0 2.12944 2.23857 0 5 0H745C747.761 0 750 2.23857 750 4.99999V616.191C750 620.745 744.248 622.793 741.117 619.486C554.771 422.698 467.926 508.574 349 627.5C229.362 747.138 68.1353 677.7 1.9026 627.458C0.670328 626.523 0 625.131 0 623.584Z" fill="url(#paint1_linear_317_47)"/>
</mask>
<g mask="url(#mask0_317_47)">
<path d="M743.687 360.809L749.687 372.309V391.309L720.187 333.309C578.187 354.809 540.687 118.309 612.687 128.309C684.687 138.309 737.687 220.809 745.187 267.309C751.187 304.509 737.353 323.809 729.687 328.809C727.287 320.409 716.687 300.309 711.687 291.309C714.487 285.309 714.853 271.475 714.687 265.309C710.687 271.309 709.353 283.809 709.187 289.309C703.187 276.909 688.353 252.475 681.687 241.809C683.687 240.209 685.52 225.142 686.187 217.809C678.187 231.309 680.187 243.809 679.187 240.309C678.387 237.509 669.52 228.809 665.187 224.809C690.187 259.309 710.687 303.809 711.687 303.309C712.687 302.809 734.687 347.809 736.687 352.309C738.287 355.909 742.02 359.475 743.687 360.809Z" fill="#043418"/>
<path d="M477.248 553.003L481 560.166V572L462.55 535.875C373.742 549.266 350.289 401.964 395.319 408.192C440.348 414.421 473.495 465.805 478.186 494.767C481.938 517.937 473.287 529.958 468.492 533.072C466.991 527.84 460.361 515.321 457.234 509.716C458.986 505.979 459.215 497.363 459.111 493.522C456.609 497.259 455.775 505.044 455.671 508.47C451.918 500.747 442.641 485.529 438.472 478.885C439.723 477.888 440.869 468.504 441.286 463.937C436.283 472.345 437.534 480.131 436.909 477.951C436.408 476.207 430.863 470.788 428.153 468.297C443.788 489.785 456.609 517.501 457.234 517.19C457.86 516.878 471.619 544.906 472.87 547.709C473.87 549.951 476.205 552.173 477.248 553.003Z" fill="#043418"/>
<path d="M143.38 698.939C216.686 641.208 294.566 524.28 304.007 469.136C293.827 477.335 277.472 488.814 272.194 491.785C265.57 495.514 221.799 541.683 243.467 581.365C243.123 583.769 242.397 584.639 242.077 584.774C216.321 621.819 147.341 696.165 119.483 711.141L143.38 698.939Z" fill="#135521" fill-opacity="0.6"/>
<path d="M546.003 550.541C508.355 446.855 405.947 316.101 347.539 285.069C352.972 299.536 359.798 322.15 361.178 329.175C362.91 337.993 398.522 404.238 451.098 394.617C453.669 395.894 454.377 397.031 454.409 397.44C486.453 440.08 544.357 545.066 550.846 581.889L546.003 550.541Z" fill="#135521"/>
<path d="M531.718 550.268C500.084 473.595 490.705 349.068 507.422 302.231C511.735 313.02 519.404 329.041 522.198 333.642C525.705 339.418 539.495 394.262 505.415 415.562C504.634 417.574 504.817 418.565 505.006 418.808C508.816 458.733 529.858 546.393 544.914 570.136L531.718 550.268Z" fill="#80E15E" fill-opacity="0.6"/>
<path d="M163.599 669.773C157.033 543.578 205.62 359.861 252.455 301C253.185 318.688 256.05 345.592 257.708 353.618C259.788 363.692 252.017 449.49 193.363 462.868C191.262 465.365 191.029 466.881 191.175 467.327C176.73 526.634 162.898 663.262 172.353 705L163.599 669.773Z" fill="#80E15E" fill-opacity="0.6"/>
<path d="M186.423 673.327C223.914 621.576 301.38 564.7 338.505 556.408C333.175 563.601 325.759 575.1 323.862 578.785C321.482 583.411 291.177 614.71 263.844 601.348C262.224 601.664 261.651 602.186 261.567 602.408C237.048 621.162 188.215 670.542 178.681 689.972L186.423 673.327Z" fill="#80E15E" fill-opacity="0.6"/>
<path d="M263.093 471C217.893 531.4 184.26 644.5 173.093 693.5C163.593 659 219.093 538.5 220.593 535.5C221.793 533.1 221.093 530.167 220.593 529C202.093 447 252.593 445.5 263.093 447C271.493 448.2 275.927 441.5 277.093 438C293.947 403.6 328.116 375 343.093 365C341.593 451 272.093 467 269.093 467C266.693 467 264.093 469.667 263.093 471Z" fill="#80E15E" fill-opacity="0.6"/>
<path d="M559.55 450.769C540.476 498.434 538.288 578.703 539.579 612.879C527.257 591.874 542.516 502.889 542.973 500.653C543.339 498.864 542.362 497.059 541.828 496.38C515.225 445.737 548.156 435.856 555.322 434.993C561.055 434.302 562.789 429.117 562.94 426.611C567.96 401.03 585.383 376.211 593.467 367C607.628 423.795 564.761 446.554 562.789 447.083C561.211 447.505 559.972 449.716 559.55 450.769Z" fill="#80E15E" fill-opacity="0.6"/>
<path d="M270.353 643.151C235.343 650.206 187.787 679.508 168.386 693.278C175.919 678.104 233.527 653.09 235.003 652.504C236.183 652.036 236.862 650.78 237.053 650.211C256.398 615.434 274.693 630.839 277.926 634.681C280.511 637.755 284.19 636.79 285.706 635.923C302.508 629.1 323.591 629.788 332.032 630.984C304.367 660.862 274.791 644.579 273.732 643.633C272.885 642.876 271.126 642.996 270.353 643.151Z" fill="#80E15E" fill-opacity="0.6"/>
<path d="M184.834 676.5C192.334 535 136.834 329 83.334 263C82.5006 282.833 79.2269 313 77.3339 322C74.958 333.296 83.8339 429.5 150.834 444.5C153.234 447.3 153.501 449 153.334 449.5C169.834 516 185.634 669.2 174.834 716L184.834 676.5Z" fill="#135521"/>
<path d="M167.104 668.144C154.034 572.376 90.5177 441.445 46.2427 404.062C48.2205 417.458 49.8851 438.089 49.7679 444.361C49.6209 452.233 67.8676 515.558 114.664 517.044C116.63 518.613 117.026 519.718 116.978 520.074C136.533 562.522 166.706 663.15 165.456 695.888L167.104 668.144Z" fill="#1F7F0D"/>
<path d="M159 693.893C176.5 684.393 219.3 666.693 250.5 671.893C251.5 668.059 258.806 660.81 262.5 671.893C265.5 680.892 249 677.643 250.5 671.893C229.833 675.226 182.6 684.293 159 693.893Z" fill="#135521"/>
<path d="M534.648 550.64C539.381 531.299 555.054 487.715 579.88 468.115C577.714 464.798 577.26 454.516 587.948 459.232C596.626 463.062 583.128 473.092 579.88 468.115C568.453 485.655 543.408 526.716 534.648 550.64Z" fill="#135521"/>
<path d="M177.013 698.869C187.103 657.64 220.511 564.737 273.431 522.957C268.815 515.885 267.846 493.968 290.629 504.022C309.129 512.185 280.354 533.564 273.431 522.957C249.072 560.345 195.687 647.871 177.013 698.869Z" fill="#135521"/>
</g>
<path d="M64.0117 119.748C57.9896 113.986 54.9785 105.083 54.9785 93.0391C54.9785 80.9622 57.9896 72.043 64.0117 66.2812C70.0664 60.487 79.1322 57.5898 91.209 57.5898H102.098C109.487 57.5898 116.014 59.5104 121.678 63.3516C127.374 67.1927 130.223 72.4499 130.223 79.123C130.223 81.0436 129.653 82.4271 128.514 83.2734C127.374 84.0872 126.268 84.4941 125.193 84.4941H119.383C116.388 84.4941 114.061 82.7038 112.4 79.123C109.992 73.9798 105.988 71.4082 100.389 71.4082H91.6973C84.5684 71.4082 79.7344 72.9382 77.1953 75.998C74.6562 79.0579 73.3867 84.722 73.3867 92.9902C73.3867 101.258 74.6562 106.939 77.1953 110.031C79.7344 113.091 84.5684 114.621 91.6973 114.621H101.414C107.013 114.621 111.001 112.049 113.377 106.906C115.037 103.293 117.381 101.486 120.408 101.486H126.219C127.749 101.486 128.953 102.056 129.832 103.195C130.743 104.335 131.199 105.572 131.199 106.906C131.199 113.579 128.367 118.837 122.703 122.678C117.039 126.486 110.512 128.391 103.123 128.391H91.209C79.1322 128.391 70.0664 125.51 64.0117 119.748ZM140.721 123.508V62.7168C140.721 61.3822 141.176 60.2591 142.088 59.3477C142.999 58.4362 144.09 57.9805 145.359 57.9805H154.539C155.809 57.9805 156.883 58.4362 157.762 59.3477C158.673 60.2591 159.129 61.3822 159.129 62.7168V114.182H201.658C202.928 114.182 204.002 114.637 204.881 115.549C205.792 116.46 206.248 117.551 206.248 118.82V123.41C206.248 124.68 205.792 125.77 204.881 126.682C204.002 127.561 202.928 128 201.658 128H145.359C144.09 128 142.999 127.577 142.088 126.73C141.176 125.852 140.721 124.777 140.721 123.508ZM214.256 123.508V62.6191C214.256 61.3496 214.712 60.2591 215.623 59.3477C216.535 58.4362 217.625 57.9805 218.895 57.9805H227.977C229.311 57.9805 230.418 58.4362 231.297 59.3477C232.208 60.2591 232.664 61.3496 232.664 62.6191V123.41C232.664 124.68 232.192 125.77 231.248 126.682C230.337 127.561 229.246 128 227.977 128H218.895C217.625 128 216.535 127.577 215.623 126.73C214.712 125.852 214.256 124.777 214.256 123.508ZM251.707 119.748C245.685 113.986 242.674 105.083 242.674 93.0391C242.674 80.9622 245.685 72.043 251.707 66.2812C257.762 60.487 266.827 57.5898 278.904 57.5898H289.793C297.182 57.5898 303.709 59.5104 309.373 63.3516C315.07 67.1927 317.918 72.4499 317.918 79.123C317.918 81.0436 317.348 82.4271 316.209 83.2734C315.07 84.0872 313.963 84.4941 312.889 84.4941H307.078C304.083 84.4941 301.756 82.7038 300.096 79.123C297.687 73.9798 293.683 71.4082 288.084 71.4082H279.393C272.264 71.4082 267.43 72.9382 264.891 75.998C262.352 79.0579 261.082 84.722 261.082 92.9902C261.082 101.258 262.352 106.939 264.891 110.031C267.43 113.091 272.264 114.621 279.393 114.621H289.109C294.708 114.621 298.696 112.049 301.072 106.906C302.732 103.293 305.076 101.486 308.104 101.486H313.914C315.444 101.486 316.648 102.056 317.527 103.195C318.439 104.335 318.895 105.572 318.895 106.906C318.895 113.579 316.062 118.837 310.398 122.678C304.734 126.486 298.208 128.391 290.818 128.391H278.904C266.827 128.391 257.762 125.51 251.707 119.748ZM400.877 125.852C400.877 127.284 400.031 128 398.338 128H387.156C385.887 128 384.52 127.561 383.055 126.682C381.59 125.77 380.451 124.68 379.637 123.41L371.043 109.787C368.992 106.467 366.925 103.977 364.842 102.316C362.758 100.624 360.252 99.7773 357.322 99.7773H346.824V123.508C346.824 124.777 346.368 125.852 345.457 126.73C344.578 127.577 343.504 128 342.234 128H333.055C331.785 128 330.695 127.544 329.783 126.633C328.872 125.689 328.416 124.582 328.416 123.312V62.6191C328.416 61.3496 328.872 60.2428 329.783 59.2988C330.695 58.3548 331.785 57.8828 333.055 57.8828H342.234C343.504 57.8828 344.578 58.3548 345.457 59.2988C346.368 60.2428 346.824 61.3496 346.824 62.6191V86.0078H357.322C360.187 86.0078 362.693 85.2266 364.842 83.6641C367.023 82.1016 369.09 79.5788 371.043 76.0957L378.611 62.6191C380.337 59.4941 382.68 57.9154 385.643 57.8828H396.922C398.484 57.8828 399.266 58.5664 399.266 59.9336C399.266 60.6823 398.989 61.5775 398.436 62.6191L387.84 81.8086C386.31 84.6081 384.585 86.9193 382.664 88.7422C380.776 90.5651 378.302 91.8509 375.242 92.5996C377.391 93.0553 379.588 94.4062 381.834 96.6523C384.113 98.8984 386.115 101.34 387.84 103.977L400.047 123.41C400.6 124.354 400.877 125.168 400.877 125.852ZM417.527 112.18C421.922 112.18 424.119 114.393 424.119 118.82V121.896C424.119 123.947 423.549 125.559 422.41 126.73C421.303 127.902 419.676 128.488 417.527 128.488H411.521C409.373 128.488 407.729 127.902 406.59 126.73C405.483 125.559 404.93 123.947 404.93 121.896V118.82C404.93 116.672 405.499 115.028 406.639 113.889C407.778 112.749 409.406 112.18 411.521 112.18H417.527Z" fill="white"/>
<path d="M57.7422 169.777L59.981 170.068C61.5874 170.068 62.7096 168.889 63.3477 166.53C61.4108 166.53 59.793 165.949 58.4941 164.787C57.1953 163.614 56.0788 161.534 55.1445 158.549L52.5981 150.295C52.564 150.204 52.5469 150.101 52.5469 149.987C52.5469 149.862 52.6152 149.714 52.752 149.543C52.9001 149.372 53.1165 149.281 53.4014 149.27H56.9731C57.3035 149.27 57.6169 149.383 57.9131 149.611C58.2207 149.828 58.4201 150.101 58.5112 150.432L60.75 157.678C61.3083 159.455 61.8722 160.686 62.4419 161.369C63.0229 162.053 63.7065 162.395 64.4927 162.395L67.8936 150.432C67.9847 150.101 68.1613 149.828 68.4233 149.611C68.6968 149.383 68.9987 149.27 69.3291 149.27H72.9351C73.2199 149.27 73.4307 149.361 73.5674 149.543C73.7041 149.725 73.7725 149.879 73.7725 150.004C73.7725 150.118 73.7611 150.215 73.7383 150.295L69.2607 166.257C68.4632 169.082 67.472 171.099 66.2871 172.307C65.1136 173.514 63.5983 174.118 61.7412 174.118C59.8841 174.118 58.5682 174.05 57.7935 173.913C57.0301 173.776 56.5516 173.605 56.3579 173.4C56.1642 173.207 56.0674 172.979 56.0674 172.717V170.837C56.0674 170.529 56.1642 170.273 56.3579 170.068C56.5516 169.874 56.8022 169.777 57.1099 169.777H57.7422ZM77.6519 165.881C75.8745 164.24 74.9858 161.825 74.9858 158.635C74.9858 155.433 75.8745 153.018 77.6519 151.389C79.4292 149.748 81.9813 148.928 85.3081 148.928C88.6463 148.928 91.2041 149.748 92.9814 151.389C94.7588 153.018 95.6475 155.433 95.6475 158.635C95.6475 161.825 94.7588 164.24 92.9814 165.881C91.2041 167.521 88.6463 168.342 85.3081 168.342C81.9813 168.342 79.4292 167.521 77.6519 165.881ZM81.9756 154.191C81.2692 155.114 80.916 156.59 80.916 158.618C80.916 160.646 81.2692 162.127 81.9756 163.061C82.682 163.995 83.7928 164.462 85.3081 164.462C86.8348 164.462 87.9513 163.995 88.6577 163.061C89.3755 162.127 89.7344 160.646 89.7344 158.618C89.7344 156.59 89.3755 155.114 88.6577 154.191C87.9513 153.269 86.8348 152.807 85.3081 152.807C83.7928 152.807 82.682 153.269 81.9756 154.191ZM98.8091 160.122V150.329C98.8091 150.021 98.9059 149.771 99.0996 149.577C99.3047 149.372 99.5553 149.27 99.8516 149.27H103.68C103.976 149.27 104.221 149.372 104.415 149.577C104.62 149.771 104.722 150.021 104.722 150.329V160.122C104.722 162.856 105.805 164.223 107.969 164.223C109.393 164.223 110.926 163.403 112.566 161.762V150.329C112.566 150.021 112.663 149.771 112.857 149.577C113.062 149.372 113.313 149.27 113.609 149.27H117.42C117.728 149.27 117.978 149.372 118.172 149.577C118.377 149.771 118.479 150.021 118.479 150.329V166.958C118.479 167.254 118.377 167.504 118.172 167.709C117.978 167.903 117.728 168 117.42 168H113.609C113.313 168 113.062 167.903 112.857 167.709C112.663 167.504 112.566 167.254 112.566 166.958V165.864C110.607 167.516 108.516 168.342 106.294 168.342C104.084 168.342 102.284 167.67 100.894 166.325C99.5041 164.969 98.8091 162.902 98.8091 160.122ZM135.655 153.61L133.023 153.508C131.485 153.508 130.015 154.351 128.614 156.037V166.958C128.614 167.265 128.511 167.516 128.306 167.709C128.112 167.903 127.868 168 127.571 168H123.743C123.436 168 123.185 167.903 122.991 167.709C122.798 167.516 122.701 167.265 122.701 166.958V150.329C122.701 150.021 122.798 149.771 122.991 149.577C123.196 149.372 123.447 149.27 123.743 149.27H127.571C127.879 149.27 128.13 149.372 128.323 149.577C128.517 149.771 128.614 150.021 128.614 150.329V151.406C129.776 150.563 130.892 149.942 131.963 149.543C133.046 149.133 134.458 148.928 136.202 148.928C136.509 148.928 136.76 149.03 136.954 149.235C137.159 149.429 137.261 149.674 137.261 149.97V152.568C137.261 152.875 137.159 153.126 136.954 153.32C136.76 153.514 136.509 153.61 136.202 153.61H135.655ZM151.993 172.717V150.329C151.993 150.021 152.09 149.771 152.283 149.577C152.488 149.372 152.739 149.27 153.035 149.27H156.333C156.63 149.27 156.875 149.372 157.068 149.577C157.273 149.771 157.376 150.021 157.376 150.329V150.842C159.176 149.566 161.267 148.928 163.648 148.928C166.029 148.928 168.017 149.771 169.612 151.457C171.207 153.132 172.005 155.536 172.005 158.669C172.005 161.791 171.179 164.183 169.527 165.847C167.875 167.51 165.647 168.342 162.845 168.342C161.398 168.342 159.751 168.051 157.906 167.47V172.717C157.906 173.024 157.803 173.275 157.598 173.469C157.404 173.674 157.16 173.776 156.863 173.776H153.035C152.739 173.776 152.488 173.674 152.283 173.469C152.09 173.275 151.993 173.024 151.993 172.717ZM157.906 163.522C159.375 163.99 160.612 164.223 161.614 164.223C163.175 164.223 164.28 163.779 164.93 162.89C165.59 162.001 165.921 160.583 165.921 158.635C165.921 156.687 165.608 155.274 164.981 154.396C164.366 153.508 163.437 153.063 162.195 153.063C160.965 153.063 159.535 153.576 157.906 154.602V163.522ZM175.167 166.958V144.553C175.167 144.245 175.263 143.994 175.457 143.801C175.662 143.596 175.913 143.493 176.209 143.493H180.037C180.333 143.493 180.578 143.596 180.772 143.801C180.977 143.994 181.08 144.245 181.08 144.553V151.406C183.039 149.754 185.124 148.928 187.334 148.928C189.556 148.928 191.362 149.606 192.752 150.961C194.142 152.306 194.837 154.368 194.837 157.148V166.958C194.837 167.254 194.734 167.504 194.529 167.709C194.336 167.903 194.085 168 193.777 168H189.966C189.67 168 189.419 167.903 189.214 167.709C189.021 167.504 188.924 167.254 188.924 166.958V157.148C188.924 154.425 187.836 153.063 185.66 153.063C184.236 153.063 182.709 153.878 181.08 155.507V166.958C181.08 167.254 180.977 167.504 180.772 167.709C180.578 167.903 180.333 168 180.037 168H176.209C175.913 168 175.662 167.903 175.457 167.709C175.263 167.504 175.167 167.254 175.167 166.958ZM200.665 165.881C198.887 164.24 197.999 161.825 197.999 158.635C197.999 155.433 198.887 153.018 200.665 151.389C202.442 149.748 204.994 148.928 208.321 148.928C211.659 148.928 214.217 149.748 215.994 151.389C217.771 153.018 218.66 155.433 218.66 158.635C218.66 161.825 217.771 164.24 215.994 165.881C214.217 167.521 211.659 168.342 208.321 168.342C204.994 168.342 202.442 167.521 200.665 165.881ZM204.988 154.191C204.282 155.114 203.929 156.59 203.929 158.618C203.929 160.646 204.282 162.127 204.988 163.061C205.695 163.995 206.806 164.462 208.321 164.462C209.847 164.462 210.964 163.995 211.67 163.061C212.388 162.127 212.747 160.646 212.747 158.618C212.747 156.59 212.388 155.114 211.67 154.191C210.964 153.269 209.847 152.807 208.321 152.807C206.806 152.807 205.695 153.269 204.988 154.191ZM230.743 164.292L233.084 164.086H233.716C234.024 164.086 234.275 164.183 234.468 164.377C234.673 164.571 234.776 164.821 234.776 165.129V166.958C234.776 167.208 234.673 167.436 234.468 167.641C234.275 167.835 234.024 167.954 233.716 168C232.554 168.228 231.039 168.342 229.17 168.342C224.271 168.342 221.822 165.778 221.822 160.651V144.553C221.822 144.245 221.919 143.994 222.112 143.801C222.317 143.596 222.568 143.493 222.864 143.493H226.692C226.989 143.493 227.234 143.596 227.427 143.801C227.632 143.994 227.735 144.245 227.735 144.553V150.261H232.503C232.799 150.261 233.044 150.358 233.238 150.551C233.443 150.745 233.545 150.996 233.545 151.303V153.337C233.545 153.645 233.443 153.895 233.238 154.089C233.044 154.283 232.799 154.379 232.503 154.379H227.735V160.651C227.735 161.813 228.008 162.714 228.555 163.352C229.102 163.978 229.831 164.292 230.743 164.292ZM239.014 165.881C237.237 164.24 236.348 161.825 236.348 158.635C236.348 155.433 237.237 153.018 239.014 151.389C240.792 149.748 243.344 148.928 246.67 148.928C250.009 148.928 252.566 149.748 254.344 151.389C256.121 153.018 257.01 155.433 257.01 158.635C257.01 161.825 256.121 164.24 254.344 165.881C252.566 167.521 250.009 168.342 246.67 168.342C243.344 168.342 240.792 167.521 239.014 165.881ZM243.338 154.191C242.632 155.114 242.278 156.59 242.278 158.618C242.278 160.646 242.632 162.127 243.338 163.061C244.044 163.995 245.155 164.462 246.67 164.462C248.197 164.462 249.314 163.995 250.02 163.061C250.738 162.127 251.097 160.646 251.097 158.618C251.097 156.59 250.738 155.114 250.02 154.191C249.314 153.269 248.197 152.807 246.67 152.807C245.155 152.807 244.044 153.269 243.338 154.191ZM273.638 166.77C272.134 165.721 271.382 164.24 271.382 162.326C271.382 160.412 272.134 158.942 273.638 157.917C275.153 156.892 277.102 156.379 279.483 156.379H285.14C285.14 155.046 284.861 154.117 284.302 153.593C283.744 153.069 282.764 152.807 281.363 152.807C279.973 152.807 278.993 153.155 278.423 153.85C277.865 154.533 277.176 154.875 276.355 154.875H273.809C273.501 154.875 273.245 154.778 273.04 154.584C272.846 154.379 272.75 154.129 272.75 153.833C272.75 150.563 275.854 148.928 282.063 148.928C284.775 148.928 286.951 149.537 288.592 150.756C290.232 151.964 291.053 153.838 291.053 156.379V166.958C291.053 167.265 290.956 167.516 290.762 167.709C290.569 167.903 290.318 168 290.01 168H286.712C286.404 168 286.154 167.903 285.96 167.709C285.766 167.504 285.669 167.254 285.669 166.958V166.428C283.869 167.715 281.79 168.353 279.432 168.342C277.085 168.342 275.153 167.818 273.638 166.77ZM279.893 160.258C279.096 160.258 278.463 160.452 277.996 160.839C277.54 161.227 277.312 161.728 277.312 162.343C277.312 162.958 277.552 163.465 278.03 163.864C278.509 164.263 279.187 164.462 280.064 164.462C281.819 164.462 283.51 163.95 285.14 162.924V160.258H279.893ZM295.274 172.717V150.329C295.274 150.021 295.371 149.771 295.564 149.577C295.77 149.372 296.02 149.27 296.316 149.27H299.615C299.911 149.27 300.156 149.372 300.35 149.577C300.555 149.771 300.657 150.021 300.657 150.329V150.842C302.457 149.566 304.548 148.928 306.929 148.928C309.31 148.928 311.299 149.771 312.894 151.457C314.489 153.132 315.286 155.536 315.286 158.669C315.286 161.791 314.46 164.183 312.808 165.847C311.156 167.51 308.929 168.342 306.126 168.342C304.679 168.342 303.033 168.051 301.187 167.47V172.717C301.187 173.024 301.084 173.275 300.879 173.469C300.686 173.674 300.441 173.776 300.145 173.776H296.316C296.02 173.776 295.77 173.674 295.564 173.469C295.371 173.275 295.274 173.024 295.274 172.717ZM301.187 163.522C302.657 163.99 303.893 164.223 304.896 164.223C306.456 164.223 307.562 163.779 308.211 162.89C308.872 162.001 309.202 160.583 309.202 158.635C309.202 156.687 308.889 155.274 308.262 154.396C307.647 153.508 306.718 153.063 305.477 153.063C304.246 153.063 302.816 153.576 301.187 154.602V163.522ZM318.448 172.717V150.329C318.448 150.021 318.545 149.771 318.738 149.577C318.943 149.372 319.194 149.27 319.49 149.27H322.789C323.085 149.27 323.33 149.372 323.523 149.577C323.729 149.771 323.831 150.021 323.831 150.329V150.842C325.631 149.566 327.722 148.928 330.103 148.928C332.484 148.928 334.472 149.771 336.067 151.457C337.662 153.132 338.46 155.536 338.46 158.669C338.46 161.791 337.634 164.183 335.982 165.847C334.33 167.51 332.103 168.342 329.3 168.342C327.853 168.342 326.207 168.051 324.361 167.47V172.717C324.361 173.024 324.258 173.275 324.053 173.469C323.86 173.674 323.615 173.776 323.318 173.776H319.49C319.194 173.776 318.943 173.674 318.738 173.469C318.545 173.275 318.448 173.024 318.448 172.717ZM324.361 163.522C325.831 163.99 327.067 164.223 328.069 164.223C329.63 164.223 330.735 163.779 331.385 162.89C332.046 162.001 332.376 160.583 332.376 158.635C332.376 156.687 332.063 155.274 331.436 154.396C330.821 153.508 329.892 153.063 328.65 153.063C327.42 153.063 325.99 153.576 324.361 154.602V163.522Z" fill="white"/>
<defs>
<linearGradient id="paint0_linear_317_47" x1="375" y1="0" x2="375" y2="693.659" gradientUnits="userSpaceOnUse">
<stop stop-color="#80E15E"/>
<stop offset="0.25" stop-color="#5CC337"/>
<stop offset="0.5" stop-color="#228808"/>
<stop offset="0.75" stop-color="#19691D"/>
<stop offset="1" stop-color="#0F4833"/>
</linearGradient>
<linearGradient id="paint1_linear_317_47" x1="375" y1="0" x2="375" y2="693.659" gradientUnits="userSpaceOnUse">
<stop stop-color="#D1FF6F"/>
<stop offset="0.25" stop-color="#71BD36"/>
<stop offset="0.5" stop-color="#228808"/>
<stop offset="0.75" stop-color="#19691D"/>
<stop offset="1" stop-color="#0F4833"/>
</linearGradient>
</defs>
</svg>
