<svg width="296" height="58" viewBox="0 0 296 58" fill="none" xmlns="http://www.w3.org/2000/svg">
<path d="M7.60938 50.3984C2.79167 45.7891 0.382812 38.6667 0.382812 29.0312C0.382812 19.3698 2.79167 12.2344 7.60938 7.625C12.4531 2.98958 19.7057 0.671875 29.3672 0.671875H38.0781C43.9896 0.671875 49.2109 2.20833 53.7422 5.28125C58.2995 8.35417 60.5781 12.5599 60.5781 17.8984C60.5781 19.4349 60.1224 20.5417 59.2109 21.2188C58.2995 21.8698 57.4141 22.1953 56.5547 22.1953H51.9062C49.5104 22.1953 47.6484 20.763 46.3203 17.8984C44.3932 13.7839 41.1901 11.7266 36.7109 11.7266H29.7578C24.0547 11.7266 20.1875 12.9505 18.1562 15.3984C16.125 17.8464 15.1094 22.3776 15.1094 28.9922C15.1094 35.6068 16.125 40.151 18.1562 42.625C20.1875 45.0729 24.0547 46.2969 29.7578 46.2969H37.5312C42.0104 46.2969 45.2005 44.2396 47.1016 40.125C48.4297 37.2344 50.3047 35.7891 52.7266 35.7891H57.375C58.599 35.7891 59.5625 36.2448 60.2656 37.1562C60.9948 38.0677 61.3594 39.0573 61.3594 40.125C61.3594 45.4635 59.0938 49.6693 54.5625 52.7422C50.0312 55.7891 44.8099 57.3125 38.8984 57.3125H29.3672C19.7057 57.3125 12.4531 55.0078 7.60938 50.3984ZM290.422 44.3438C293.938 44.3438 295.695 46.1146 295.695 49.6562V52.1172C295.695 53.7578 295.24 55.0469 294.328 55.9844C293.443 56.9219 292.141 57.3906 290.422 57.3906H285.617C283.898 57.3906 282.583 56.9219 281.672 55.9844C280.786 55.0469 280.344 53.7578 280.344 52.1172V49.6562C280.344 47.9375 280.799 46.6224 281.711 45.7109C282.622 44.7995 283.924 44.3438 285.617 44.3438H290.422Z" fill="#98B050"/>
<path d="M68.9766 53.4062V4.77344C68.9766 3.70573 69.3411 2.80729 70.0703 2.07812C70.7995 1.34896 71.6719 0.984375 72.6875 0.984375H80.0312C81.0469 0.984375 81.9062 1.34896 82.6094 2.07812C83.3385 2.80729 83.7031 3.70573 83.7031 4.77344V45.9453H117.727C118.742 45.9453 119.602 46.3099 120.305 47.0391C121.034 47.7682 121.398 48.6406 121.398 49.6562V53.3281C121.398 54.3438 121.034 55.2161 120.305 55.9453C119.602 56.6484 118.742 57 117.727 57H72.6875C71.6719 57 70.7995 56.6615 70.0703 55.9844C69.3411 55.2812 68.9766 54.4219 68.9766 53.4062ZM127.805 53.4062V4.69531C127.805 3.67969 128.169 2.80729 128.898 2.07812C129.628 1.34896 130.5 0.984375 131.516 0.984375H138.781C139.849 0.984375 140.734 1.34896 141.438 2.07812C142.167 2.80729 142.531 3.67969 142.531 4.69531V53.3281C142.531 54.3438 142.154 55.2161 141.398 55.9453C140.669 56.6484 139.797 57 138.781 57H131.516C130.5 57 129.628 56.6615 128.898 55.9844C128.169 55.2812 127.805 54.4219 127.805 53.4062ZM157.766 50.3984C152.948 45.7891 150.539 38.6667 150.539 29.0312C150.539 19.3698 152.948 12.2344 157.766 7.625C162.609 2.98958 169.862 0.671875 179.523 0.671875H188.234C194.146 0.671875 199.367 2.20833 203.898 5.28125C208.456 8.35417 210.734 12.5599 210.734 17.8984C210.734 19.4349 210.279 20.5417 209.367 21.2188C208.456 21.8698 207.57 22.1953 206.711 22.1953H202.062C199.667 22.1953 197.805 20.763 196.477 17.8984C194.549 13.7839 191.346 11.7266 186.867 11.7266H179.914C174.211 11.7266 170.344 12.9505 168.312 15.3984C166.281 17.8464 165.266 22.3776 165.266 28.9922C165.266 35.6068 166.281 40.151 168.312 42.625C170.344 45.0729 174.211 46.2969 179.914 46.2969H187.688C192.167 46.2969 195.357 44.2396 197.258 40.125C198.586 37.2344 200.461 35.7891 202.883 35.7891H207.531C208.755 35.7891 209.719 36.2448 210.422 37.1562C211.151 38.0677 211.516 39.0573 211.516 40.125C211.516 45.4635 209.25 49.6693 204.719 52.7422C200.188 55.7891 194.966 57.3125 189.055 57.3125H179.523C169.862 57.3125 162.609 55.0078 157.766 50.3984ZM277.102 55.2812C277.102 56.4271 276.424 57 275.07 57H266.125C265.109 57 264.016 56.6484 262.844 55.9453C261.672 55.2161 260.76 54.3438 260.109 53.3281L253.234 42.4297C251.594 39.7734 249.94 37.7812 248.273 36.4531C246.607 35.099 244.602 34.4219 242.258 34.4219H233.859V53.4062C233.859 54.4219 233.495 55.2812 232.766 55.9844C232.062 56.6615 231.203 57 230.188 57H222.844C221.828 57 220.956 56.6354 220.227 55.9062C219.497 55.151 219.133 54.2656 219.133 53.25V4.69531C219.133 3.67969 219.497 2.79427 220.227 2.03906C220.956 1.28385 221.828 0.90625 222.844 0.90625H230.188C231.203 0.90625 232.062 1.28385 232.766 2.03906C233.495 2.79427 233.859 3.67969 233.859 4.69531V23.4062H242.258C244.549 23.4062 246.555 22.7812 248.273 21.5312C250.018 20.2812 251.672 18.263 253.234 15.4766L259.289 4.69531C260.669 2.19531 262.544 0.932292 264.914 0.90625H273.938C275.188 0.90625 275.812 1.45312 275.812 2.54688C275.812 3.14583 275.591 3.86198 275.148 4.69531L266.672 20.0469C265.448 22.2865 264.068 24.1354 262.531 25.5938C261.021 27.0521 259.042 28.0807 256.594 28.6797C258.312 29.0443 260.07 30.125 261.867 31.9219C263.69 33.7188 265.292 35.6719 266.672 37.7812L276.438 53.3281C276.88 54.0833 277.102 54.7344 277.102 55.2812Z" fill="#16200A"/>
</svg>
