<svg width="82" height="58" viewBox="0 0 82 58" fill="none" xmlns="http://www.w3.org/2000/svg">
<path d="M7.60938 50.3984C2.79167 45.7891 0.382812 38.6667 0.382812 29.0312C0.382812 19.3698 2.79167 12.2344 7.60938 7.625C12.4531 2.98958 19.7057 0.671875 29.3672 0.671875H38.0781C43.9896 0.671875 49.2109 2.20833 53.7422 5.28125C58.2995 8.35417 60.5781 12.5599 60.5781 17.8984C60.5781 19.4349 60.1224 20.5417 59.2109 21.2188C58.2995 21.8698 57.4141 22.1953 56.5547 22.1953H51.9062C49.5104 22.1953 47.6484 20.763 46.3203 17.8984C44.3932 13.7839 41.1901 11.7266 36.7109 11.7266H29.7578C24.0547 11.7266 20.1875 12.9505 18.1562 15.3984C16.125 17.8464 15.1094 22.3776 15.1094 28.9922C15.1094 35.6068 16.125 40.151 18.1562 42.625C20.1875 45.0729 24.0547 46.2969 29.7578 46.2969H37.5312C42.0104 46.2969 45.2005 44.2396 47.1016 40.125C48.4297 37.2344 50.3047 35.7891 52.7266 35.7891H57.375C58.599 35.7891 59.5625 36.2448 60.2656 37.1562C60.9948 38.0677 61.3594 39.0573 61.3594 40.125C61.3594 45.4635 59.0938 49.6693 54.5625 52.7422C50.0312 55.7891 44.8099 57.3125 38.8984 57.3125H29.3672C19.7057 57.3125 12.4531 55.0078 7.60938 50.3984ZM76.6719 44.3438C80.1875 44.3438 81.9453 46.1146 81.9453 49.6562V52.1172C81.9453 53.7578 81.4896 55.0469 80.5781 55.9844C79.6927 56.9219 78.3906 57.3906 76.6719 57.3906H71.8672C70.1484 57.3906 68.8333 56.9219 67.9219 55.9844C67.0365 55.0469 66.5938 53.7578 66.5938 52.1172V49.6562C66.5938 47.9375 67.0495 46.6224 67.9609 45.7109C68.8724 44.7995 70.1745 44.3438 71.8672 44.3438H76.6719Z" fill="#98B050"/>
</svg>
